<?xml version="1.0" standalone="no"?>
<!DOCTYPE svg PUBLIC "-//W3C//DTD SVG 20010904//EN"
 "http://www.w3.org/TR/2001/REC-SVG-20010904/DTD/svg10.dtd">
<svg version="1.0" xmlns="http://www.w3.org/2000/svg"
 width="512.000000pt" height="512.000000pt" viewBox="0 0 512.000000 512.000000"
 preserveAspectRatio="xMidYMid meet">
<metadata>
Created by potrace 1.14, written by Peter Selinger 2001-2017
</metadata>
<g transform="translate(0.000000,512.000000) scale(0.100000,-0.100000)"
fill="#000000" stroke="none">
<path d="M2509 4506 c-3 -3 -34 -8 -70 -11 -139 -13 -137 -12 -242 -92 -34
-26 -62 -40 -71 -37 -9 3 -16 2 -16 -4 0 -6 6 -13 13 -15 9 -4 9 -6 -1 -6 -7
-1 -10 -5 -7 -11 3 -5 2 -10 -3 -10 -17 0 -73 -97 -91 -156 -10 -31 -23 -59
-30 -64 -7 -4 -12 -9 -11 -11 2 -2 -7 -24 -18 -49 -42 -93 -53 -213 -36 -385
4 -44 7 -119 7 -166 -1 -56 5 -113 18 -160 33 -128 38 -139 67 -145 49 -10 69
-25 94 -73 40 -72 79 -236 103 -428 3 -28 -2 -37 -17 -32 -2 0 -28 -9 -58 -21
-30 -12 -70 -27 -89 -32 -41 -12 -126 -89 -139 -128 -8 -22 -6 -38 14 -80 13
-29 24 -58 24 -65 0 -8 -21 -28 -47 -46 -84 -56 -104 -72 -205 -169 -117 -113
-179 -197 -194 -265 -4 -16 -13 -68 -19 -105 -3 -19 -10 -57 -15 -85 -12 -60
-17 -94 -26 -160 -3 -27 -8 -53 -10 -56 -6 -10 -14 -184 -19 -417 -3 -123 -7
-227 -9 -231 -2 -3 -8 -47 -11 -95 -4 -49 -9 -97 -10 -105 -3 -18 -13 -112
-20 -182 -9 -103 -18 -195 -20 -209 -1 -8 7 -41 17 -72 15 -45 17 -64 9 -92
l-9 -36 1474 0 c1172 0 1474 3 1475 13 4 49 8 107 14 200 3 60 8 116 10 126 2
10 6 55 10 102 4 46 9 92 11 103 2 10 6 44 10 75 3 31 8 64 10 74 5 31 16 175
20 270 2 50 4 97 5 102 4 30 -11 230 -20 262 -10 39 -15 65 -26 143 -4 25 -11
68 -16 95 -6 28 -13 61 -15 75 -45 232 -70 323 -110 407 -19 40 -34 76 -34 81
0 4 -37 46 -82 94 -85 87 -81 85 -278 175 -30 14 -80 37 -110 51 -30 14 -65
30 -77 35 -12 6 -30 26 -39 46 -42 91 -112 158 -164 159 -8 1 -33 4 -55 7 -40
7 -70 11 -91 14 -6 0 -19 22 -29 49 -37 98 -124 171 -212 176 l-38 2 -8 54
c-10 73 -11 185 -2 199 4 7 24 19 45 27 26 11 41 24 46 42 4 15 8 29 9 32 1 3
5 23 10 45 26 133 29 189 11 207 -8 9 -20 18 -26 20 -19 6 -28 123 -20 258 1
19 -1 44 -3 55 -3 11 -8 45 -12 75 -8 57 -73 267 -96 310 -14 25 -31 46 -98
122 -62 71 -152 110 -285 123 -34 4 -64 4 -67 1z"/>
</g>
</svg>
